<svg id="s" xmlns="http://www.w3.org/2000/svg" viewBox="0 0 500 500"><defs><style>.cls-1{fill:#f4ce62;}</style></defs><title>画板 1</title><path id="d" class="cls-1" d="M212.39,175.34a62.65,62.65,0,0,1,21.84-19.54c21.2-11.85,57.31-19.15,95.6-18.76C300,80.25,244.21,30.18,207.81,17.6,150.12-2.34,118.28,63.28,93,149.07c-7.28,24.72-13.22,48.4-16.61,70.09C115.69,193,168,172.25,212.39,175.34Z"/><path id="c" class="cls-1" d="M233.56,325.35c-44.28,11.74-90.45,12.19-117.26,2.92C75.23,314.08,68,272.75,76.4,219.16,54.51,233.74,36.67,250,26.53,264.75-9.63,317.36,37.3,371.31,104,425.09s127.85,87,164,34.42c7-10.15,13.57-24.26,19.2-40.8-17-21-33-49.77-48.32-82C237.06,332.9,235.28,329.11,233.56,325.35Z"/><path id="b" class="cls-1" d="M475.84,205c-23.1-48.48-87.15-67.29-146-67.91,17.46,33.21,26.07,68.72,16.74,100.38-6.75,22.92-22.22,41.5-42.37,56.05,2.7,43-4.93,89.73-17,125.24,25.25,31.05,53,44.84,85.13,26.87C426.12,415.49,514,285,475.84,205Z"/><path id="a" class="cls-1" d="M263.55,194.07c-14.45-11.65-32.07-17.4-51.16-18.73-22.84,33.73-7,88.64,21.17,150,25.53-6.77,50.44-17.29,70.64-31.88C301.64,252.64,289.77,215.22,263.55,194.07Z"/></svg>